<?xml version="1.0" encoding="UTF-8"?>
<!DOCTYPE svg PUBLIC "-//W3C//DTD SVG 1.1//EN" "http://www.w3.org/Graphics/SVG/1.1/DTD/svg11.dtd">
<svg xmlns="http://www.w3.org/2000/svg" version="1.1" width="55px" height="34px" style="shape-rendering:geometricPrecision; text-rendering:geometricPrecision; image-rendering:optimizeQuality; fill-rule:evenodd; clip-rule:evenodd" xmlns:xlink="http://www.w3.org/1999/xlink">
<g><path style="opacity:1" fill="#fab538" d="M 0.5,-0.5 C 1.83333,-0.5 3.16667,-0.5 4.5,-0.5C 4.5,10.8333 4.5,22.1667 4.5,33.5C 3.16667,33.5 1.83333,33.5 0.5,33.5C 0.5,22.1667 0.5,10.8333 0.5,-0.5 Z"/></g>
<g><path style="opacity:1" fill="#faab37" d="M 4.5,-0.5 C 5.16667,-0.5 5.83333,-0.5 6.5,-0.5C 6.5,10.8333 6.5,22.1667 6.5,33.5C 5.83333,33.5 5.16667,33.5 4.5,33.5C 4.5,22.1667 4.5,10.8333 4.5,-0.5 Z"/></g>
<g><path style="opacity:1" fill="#faa63b" d="M 6.5,-0.5 C 7.16667,-0.5 7.83333,-0.5 8.5,-0.5C 8.5,10.8333 8.5,22.1667 8.5,33.5C 7.83333,33.5 7.16667,33.5 6.5,33.5C 6.5,22.1667 6.5,10.8333 6.5,-0.5 Z"/></g>
<g><path style="opacity:1" fill="#faa349" d="M 8.5,-0.5 C 9.5,-0.5 10.5,-0.5 11.5,-0.5C 11.5,2.16667 11.5,4.83333 11.5,7.5C 10.5386,9.26465 10.2053,11.2646 10.5,13.5C 11.8333,13.5 13.1667,13.5 14.5,13.5C 14.5,16.1667 14.5,18.8333 14.5,21.5C 13.1667,21.5 11.8333,21.5 10.5,21.5C 10.5,25.5 10.5,29.5 10.5,33.5C 9.83333,33.5 9.16667,33.5 8.5,33.5C 8.5,22.1667 8.5,10.8333 8.5,-0.5 Z"/></g>
<g><path style="opacity:1" fill="#fa9464" d="M 17.5,-0.5 C 18.8333,-0.5 20.1667,-0.5 21.5,-0.5C 21.5,2.16667 21.5,4.83333 21.5,7.5C 20.1667,7.5 18.8333,7.5 17.5,7.5C 17.5,4.83333 17.5,2.16667 17.5,-0.5 Z"/></g>
<g><path style="opacity:1" fill="#f87b73" d="M 26.5,-0.5 C 27.5,-0.5 28.5,-0.5 29.5,-0.5C 29.5,10.8333 29.5,22.1667 29.5,33.5C 28.5,33.5 27.5,33.5 26.5,33.5C 26.5,22.1667 26.5,10.8333 26.5,-0.5 Z"/></g>
<g><path style="opacity:1" fill="#ed6f7d" d="M 31.5,-0.5 C 32.5,-0.5 33.5,-0.5 34.5,-0.5C 34.4074,10.8498 34.7407,22.1831 35.5,33.5C 34.1667,33.5 32.8333,33.5 31.5,33.5C 31.5,22.1667 31.5,10.8333 31.5,-0.5 Z"/></g>
<g><path style="opacity:1" fill="#d36a9d" d="M 38.5,-0.5 C 39.8333,-0.5 41.1667,-0.5 42.5,-0.5C 43.0102,2.38779 42.3435,4.72113 40.5,6.5C 39.8333,6.5 39.1667,6.5 38.5,6.5C 38.5,4.16667 38.5,1.83333 38.5,-0.5 Z"/></g>
<g><path style="opacity:1" fill="#db92be" d="M 42.5,-0.5 C 43.8333,-0.5 45.1667,-0.5 46.5,-0.5C 46.5,-0.166667 46.5,0.166667 46.5,0.5C 45.8333,0.5 45.1667,0.5 44.5,0.5C 43.8333,4.83333 43.1667,9.16667 42.5,13.5C 42.8342,10.812 42.1675,8.47865 40.5,6.5C 42.3435,4.72113 43.0102,2.38779 42.5,-0.5 Z"/></g>
<g><path style="opacity:1" fill="#cd6eab" d="M 44.5,0.5 C 44.3338,6.84209 44.5005,13.1754 45,19.5C 45.6708,20.2524 46.5041,20.5858 47.5,20.5C 45.4855,21.9238 43.1522,22.5905 40.5,22.5C 40.5,20.1667 40.5,17.8333 40.5,15.5C 41.1667,14.8333 41.8333,14.1667 42.5,13.5C 43.1667,9.16667 43.8333,4.83333 44.5,0.5 Z"/></g>
<g><path style="opacity:1" fill="#c069b7" d="M 44.5,0.5 C 45.1667,0.5 45.8333,0.5 46.5,0.5C 47.4916,0.32842 48.1583,0.661754 48.5,1.5C 48.1771,7.68996 48.5104,13.69 49.5,19.5C 49.1583,20.3382 48.4916,20.6716 47.5,20.5C 46.5041,20.5858 45.6708,20.2524 45,19.5C 44.5005,13.1754 44.3338,6.84209 44.5,0.5 Z"/></g>
<g><path style="opacity:1" fill="#f9974a" d="M 11.5,-0.5 C 13.5,-0.5 15.5,-0.5 17.5,-0.5C 17.5,2.16667 17.5,4.83333 17.5,7.5C 15.5,7.5 13.5,7.5 11.5,7.5C 11.5,4.83333 11.5,2.16667 11.5,-0.5 Z"/></g>
<g><path style="opacity:1" fill="#f67072" d="M 29.5,-0.5 C 30.1667,-0.5 30.8333,-0.5 31.5,-0.5C 31.5,10.8333 31.5,22.1667 31.5,33.5C 30.8333,33.5 30.1667,33.5 29.5,33.5C 29.5,22.1667 29.5,10.8333 29.5,-0.5 Z"/></g>
<g><path style="opacity:1" fill="#ba72ca" d="M 48.5,1.5 C 50.0174,1.51056 51.1841,2.17723 52,3.5C 52.8447,5.6115 53.678,7.6115 54.5,9.5C 54.5,10.1667 54.5,10.8333 54.5,11.5C 53.8651,14.7616 52.1984,17.4282 49.5,19.5C 48.5104,13.69 48.1771,7.68996 48.5,1.5 Z"/></g>
<g><path style="opacity:1" fill="#f99459" d="M 14.5,13.5 C 16.5,13.5 18.5,13.5 20.5,13.5C 20.5,16.1667 20.5,18.8333 20.5,21.5C 18.5,21.5 16.5,21.5 14.5,21.5C 14.5,18.8333 14.5,16.1667 14.5,13.5 Z"/></g>
<g><path style="opacity:1" fill="#e57490" d="M 34.5,-0.5 C 35.8333,-0.5 37.1667,-0.5 38.5,-0.5C 38.5,1.83333 38.5,4.16667 38.5,6.5C 36.6122,8.98785 35.9455,11.9878 36.5,15.5C 37.8333,15.5 39.1667,15.5 40.5,15.5C 40.5,17.8333 40.5,20.1667 40.5,22.5C 39.1667,22.5 37.8333,22.5 36.5,22.5C 36.5,26.1667 36.5,29.8333 36.5,33.5C 36.1667,33.5 35.8333,33.5 35.5,33.5C 34.7407,22.1831 34.4074,10.8498 34.5,-0.5 Z"/></g>
</svg>
