<svg id="Layer_1" data-name="Layer 1" xmlns="http://www.w3.org/2000/svg" viewBox="0 0 358.43 119.38">
    <path fill="#FFFFFF" d="M27.14,46.73H59.56v8.56H35.7V72.5H27.14V55.29h0V46.73Zm0-6V32.21h36v8.56Z"></path>
    <path fill="#FFFFFF" d="M109.08,52.42A20.08,20.08,0,1,1,89,32.35,20.09,20.09,0,0,1,109.08,52.42ZM89,40.73a11.7,11.7,0,1,0,11.7,11.69A11.71,11.71,0,0,0,89,40.73Z"></path>
    <path fill="#FFFFFF" d="M123.17,56.74,128.49,64l-5.82,7.9-.48.65H111.56L113.44,70ZM152.84,72.5H142.21l-.48-.65-5.43-7.38-4.09-5.56h0l-5.32-7.21v0L114.41,34.74l-1.88-2.55h10.63l.48.65,8.56,11.63,8.57-11.63.48-.65h10.63L150,34.75,137.52,51.69,151,70Z"></path>
    <path fill="#FFFFFF" d="M197.44,56.44l-.68,2.1a20.22,20.22,0,0,1-39.23-3.29,19.47,19.47,0,0,1-.22-3,20.67,20.67,0,0,1,.2-2.85,20.21,20.21,0,0,1,39.43-2.78l.6,2.05h-8.87l-.41-1A11.66,11.66,0,0,0,166.09,50a11.82,11.82,0,0,0-.22,2.31,12.13,12.13,0,0,0,.24,2.4A11.66,11.66,0,0,0,188,57.34l.43-.9Z"></path>
    <path fill="#FFFFFF" d="M213.2,46.24l5.38,9.67-8.72,15.77-.46.82H198.66L200,70.12ZM245.31,72.5H234.58l-.46-.82-8-14.53L222.15,50l-.16-.28-5.39-9.67,0,0,.43-.78L220.56,33l.41-.89H223l.4.89,3.51,6.33L244,70.12Z"></path>
    <path fill="#FFFFFF" d="M284.3,54.22A12.22,12.22,0,0,1,273.69,72.5H261.57a11.67,11.67,0,0,1-11.25-8.56,11.79,11.79,0,0,1-.42-3.11h8.38a3.28,3.28,0,0,0,2.23,3.11h13.18a3.66,3.66,0,1,0,0-7.31H262.12a12.24,12.24,0,0,1-8.94-3.9,12,12,0,0,1-1.67-2.26,12.22,12.22,0,0,1,10.61-18.28h12.33a11.67,11.67,0,0,1,11.25,8.56,11.79,11.79,0,0,1,.42,3.11h-8.38a3.29,3.29,0,0,0-2.22-3.11h-13.4a3.66,3.66,0,0,0,0,7.32h11.57A12.26,12.26,0,0,1,284.3,54.22Z"></path>
    <path fill="#FFFFFF" d="M331.29,32.21v8.56h-36V32.21ZM303.84,63.94h27.45V72.5h-36V46.68l8.55,0H327.7v8.56H303.84Z"></path>
    <path fill="#FFFFFF" d="M254.33,87.24H251V79.52h3.18c1.62,0,2.51.84,2.51,2a1.77,1.77,0,0,1-1.31,1.77,1.88,1.88,0,0,1,1.49,1.87C256.87,86.38,255.93,87.24,254.33,87.24ZM254,80.77h-1.41v1.94H254c.73,0,1.15-.33,1.15-1S254.69,80.77,254,80.77Zm.11,3.13h-1.52V86h1.56c.75,0,1.19-.36,1.19-1S254.82,83.9,254.07,83.9Z"></path>
    <path fill="#FFFFFF" d="M258.57,79.52h1.75L262,83.05l1.65-3.53h1.72l-2.61,5v2.69h-1.55V84.55Z"></path>
    <path fill="#FFFFFF" d="M271.09,79.52h1.76l2.45,5.74,2.46-5.74h1.74v7.72H278v-5l-2.07,5h-1.18l-2.07-5v5h-1.55Z"></path>
    <path fill="#FFFFFF" d="M282.11,79.52h1.55V84.3a1.57,1.57,0,1,0,3.13,0V79.52h1.56v4.77a2.91,2.91,0,0,1-3.15,3,2.86,2.86,0,0,1-3.09-3Z"></path>
    <path fill="#FFFFFF" d="M293.61,87.32c-1.6,0-2.84-.84-2.86-2.3h1.65a1.07,1.07,0,0,0,1.18,1c.73,0,1.16-.39,1.16-.94,0-1.67-4-.67-4-3.46,0-1.4,1.13-2.24,2.72-2.24s2.66.81,2.76,2.2h-1.7a1,1,0,0,0-1.11-.92c-.6,0-1.06.28-1.06.91,0,1.55,4,.69,4,3.41A2.44,2.44,0,0,1,293.61,87.32Z"></path>
    <path fill="#FFFFFF" d="M298.37,79.52H304v1.25H302v6.47h-1.55V80.77h-2.06Z"></path>
    <path fill="#FFFFFF" d="M311,85.77h-3.07l-.51,1.47h-1.63l2.78-7.73h1.8l2.78,7.73h-1.64Zm-1.53-4.47-1.12,3.23h2.23Z"></path>
    <path fill="#FFFFFF" d="M318.83,79.42a3.65,3.65,0,0,1,3.63,2.5h-1.78a2,2,0,0,0-1.86-1.1,2.57,2.57,0,0,0,0,5.11,2,2,0,0,0,1.86-1.12h1.78a3.63,3.63,0,0,1-3.63,2.5,3.95,3.95,0,0,1,0-7.89Z"></path>
    <path fill="#FFFFFF" d="M329.74,84h-3.3v3.28h-1.55V79.52h1.55V82.7h3.3V79.52h1.55v7.72h-1.55Z"></path>
</svg>