<svg xmlns="http://www.w3.org/2000/svg" viewBox="0 0 202.5 52.499999">
    <path fill="#FFFFFF" d="M 51.023438 52.011719 C 50.582031 52.015625 50.246094 51.824219 50.015625 51.445312 L 41.160156 36.679688 L 24.601562 41.183594 C 24.339844 41.246094 24.089844 41.222656 23.847656 41.113281 C 23.601562 41.003906 23.417969 40.832031 23.292969 40.59375 L 3.9375 4.230469 C 3.847656 4.0625 3.800781 3.878906 3.800781 3.6875 C 3.800781 3.496094 3.839844 3.316406 3.929688 3.144531 C 4.015625 2.976562 4.136719 2.835938 4.292969 2.722656 C 4.449219 2.613281 4.625 2.542969 4.8125 2.519531 L 21.246094 0.3125 C 21.476562 0.277344 21.699219 0.3125 21.910156 0.414062 C 22.121094 0.515625 22.289062 0.664062 22.410156 0.867188 L 42.226562 33.957031 L 65.28125 27.6875 L 57.59375 16.839844 C 57.480469 16.683594 57.410156 16.507812 57.386719 16.316406 C 57.359375 16.125 57.378906 15.941406 57.441406 15.757812 C 57.507812 15.578125 57.613281 15.421875 57.753906 15.292969 C 57.898438 15.160156 58.0625 15.070312 58.246094 15.023438 L 69.03125 12.476562 C 69.25 12.421875 69.46875 12.433594 69.679688 12.507812 C 69.894531 12.578125 70.074219 12.703125 70.214844 12.878906 L 79.546875 24.527344 C 79.671875 24.683594 79.75 24.855469 79.785156 25.050781 C 79.820312 25.246094 79.808594 25.4375 79.746094 25.625 C 79.6875 25.8125 79.585938 25.972656 79.441406 26.109375 C 79.296875 26.246094 79.132812 26.339844 78.941406 26.390625 L 69.140625 29.0625 L 77.71875 41.128906 C 77.828125 41.28125 77.894531 41.445312 77.921875 41.628906 C 77.953125 41.808594 77.9375 41.988281 77.882812 42.164062 C 77.824219 42.339844 77.734375 42.492188 77.605469 42.625 C 77.476562 42.757812 77.324219 42.851562 77.152344 42.914062 L 51.394531 51.941406 C 51.273438 51.984375 51.152344 52.007812 51.023438 52.011719 Z M 43.507812 36.039062 L 51.535156 49.417969 L 74.925781 41.234375 L 66.757812 29.722656 Z M 6.796875 4.597656 L 24.910156 38.671875 L 39.941406 34.597656 L 20.796875 2.734375 Z M 60.546875 16.90625 L 67.753906 27.039062 L 76.695312 24.609375 L 68.917969 14.925781 Z M 91.875 13.371094 L 94.21875 13.371094 L 94.21875 38.476562 L 91.882812 38.476562 Z M 117.097656 20.363281 L 117.097656 38.476562 L 114.796875 38.476562 L 114.796875 35.339844 C 113.90625 36.457031 112.785156 37.375 111.507812 38.019531 C 110.640625 38.4375 109.730469 38.707031 108.777344 38.835938 C 107.824219 38.964844 106.871094 38.945312 105.925781 38.777344 C 104.980469 38.605469 104.082031 38.296875 103.230469 37.84375 C 102.382812 37.394531 101.621094 36.820312 100.953125 36.132812 C 100.058594 35.234375 99.371094 34.195312 98.898438 33.019531 C 98.429688 31.839844 98.203125 30.617188 98.230469 29.351562 C 98.210938 28.09375 98.4375 26.882812 98.917969 25.722656 C 99.394531 24.558594 100.082031 23.539062 100.976562 22.65625 C 101.839844 21.75 102.847656 21.058594 104 20.574219 C 105.152344 20.089844 106.355469 19.859375 107.605469 19.878906 C 109.011719 19.859375 110.398438 20.183594 111.644531 20.828125 C 112.929688 21.523438 113.988281 22.472656 114.816406 23.671875 L 114.816406 20.359375 Z M 107.785156 22.164062 C 107.152344 22.160156 106.527344 22.238281 105.914062 22.402344 C 105.304688 22.566406 104.722656 22.808594 104.175781 23.128906 C 103.628906 23.449219 103.136719 23.835938 102.691406 24.289062 C 102.25 24.746094 101.875 25.25 101.570312 25.804688 C 100.265625 28.070312 100.265625 30.855469 101.570312 33.121094 C 102.1875 34.246094 103.097656 35.183594 104.203125 35.835938 C 105.296875 36.488281 106.480469 36.8125 107.753906 36.808594 C 109.046875 36.808594 110.257812 36.488281 111.378906 35.84375 C 112.484375 35.238281 113.398438 34.332031 114.011719 33.234375 C 114.652344 32.070312 114.960938 30.828125 114.9375 29.503906 C 114.964844 28.523438 114.796875 27.578125 114.4375 26.664062 C 114.078125 25.753906 113.554688 24.949219 112.863281 24.25 C 112.199219 23.5625 111.425781 23.035156 110.542969 22.671875 C 109.660156 22.308594 108.738281 22.136719 107.78125 22.160156 Z M 121.464844 20.363281 L 123.84375 20.363281 L 123.84375 23.011719 C 124.445312 22.089844 125.195312 21.308594 126.097656 20.675781 C 126.839844 20.167969 127.660156 19.90625 128.5625 19.898438 C 129.304688 19.925781 129.996094 20.128906 130.632812 20.519531 L 129.414062 22.5 C 129.011719 22.308594 128.59375 22.203125 128.152344 22.183594 C 127.277344 22.210938 126.527344 22.527344 125.902344 23.140625 C 125.058594 23.96875 124.503906 24.957031 124.242188 26.109375 C 123.964844 27.140625 123.828125 29.226562 123.828125 32.367188 L 123.828125 38.496094 L 121.445312 38.496094 Z M 150.652344 20.363281 L 150.652344 38.476562 L 148.351562 38.476562 L 148.351562 35.339844 C 147.460938 36.457031 146.335938 37.375 145.0625 38.019531 C 144.195312 38.4375 143.285156 38.707031 142.328125 38.835938 C 141.375 38.964844 140.425781 38.945312 139.480469 38.777344 C 138.53125 38.605469 137.632812 38.296875 136.785156 37.84375 C 135.933594 37.394531 135.175781 36.820312 134.503906 36.132812 C 133.609375 35.234375 132.925781 34.195312 132.453125 33.019531 C 131.980469 31.839844 131.757812 30.617188 131.785156 29.351562 C 131.746094 26.835938 132.738281 24.414062 134.535156 22.65625 C 135.398438 21.75 136.40625 21.058594 137.558594 20.574219 C 138.710938 20.089844 139.914062 19.859375 141.164062 19.878906 C 142.570312 19.859375 143.957031 20.183594 145.203125 20.828125 C 146.488281 21.523438 147.542969 22.472656 148.375 23.671875 L 148.375 20.359375 Z M 141.335938 22.164062 C 140.703125 22.160156 140.078125 22.238281 139.46875 22.402344 C 138.855469 22.566406 138.273438 22.808594 137.726562 23.128906 C 137.179688 23.449219 136.6875 23.835938 136.246094 24.289062 C 135.800781 24.746094 135.429688 25.25 135.121094 25.804688 C 133.820312 28.070312 133.820312 30.855469 135.121094 33.121094 C 135.738281 34.246094 136.648438 35.183594 137.757812 35.835938 C 138.847656 36.488281 140.03125 36.8125 141.304688 36.808594 C 142.597656 36.808594 143.808594 36.488281 144.929688 35.84375 C 146.035156 35.238281 146.949219 34.332031 147.566406 33.234375 C 148.203125 32.070312 148.511719 30.828125 148.488281 29.503906 C 148.519531 28.519531 148.355469 27.570312 147.992188 26.65625 C 147.632812 25.742188 147.109375 24.933594 146.417969 24.230469 C 145.753906 23.542969 144.980469 23.019531 144.097656 22.65625 C 143.214844 22.292969 142.292969 22.121094 141.339844 22.140625 Z M 154.1875 20.363281 L 156.675781 20.363281 L 162.757812 33.5625 L 168.773438 20.363281 L 171.261719 20.363281 L 162.972656 38.476562 L 162.558594 38.476562 Z M 190.054688 32.464844 L 192.035156 33.496094 C 191.476562 34.652344 190.730469 35.675781 189.804688 36.5625 C 188.96875 37.335938 188.019531 37.925781 186.953125 38.335938 C 185.796875 38.757812 184.601562 38.960938 183.371094 38.945312 C 180.414062 38.945312 178.101562 37.984375 176.433594 36.0625 C 175.628906 35.160156 175.011719 34.140625 174.582031 33.007812 C 174.152344 31.875 173.941406 30.703125 173.945312 29.492188 C 173.921875 27.265625 174.671875 25.09375 176.0625 23.371094 C 176.480469 22.816406 176.957031 22.324219 177.496094 21.886719 C 178.03125 21.445312 178.613281 21.078125 179.238281 20.78125 C 179.863281 20.480469 180.515625 20.261719 181.191406 20.121094 C 181.871094 19.976562 182.554688 19.917969 183.246094 19.941406 C 183.960938 19.917969 184.664062 19.980469 185.363281 20.125 C 186.058594 20.269531 186.730469 20.496094 187.375 20.800781 C 188.015625 21.105469 188.617188 21.484375 189.167969 21.929688 C 189.722656 22.378906 190.214844 22.886719 190.648438 23.453125 C 191.960938 25.109375 192.621094 27.179688 192.628906 29.667969 L 176.316406 29.667969 C 176.289062 31.589844 177.011719 33.441406 178.332031 34.839844 C 178.957031 35.5 179.6875 36.007812 180.527344 36.359375 C 181.367188 36.710938 182.242188 36.875 183.152344 36.855469 C 184.078125 36.855469 184.976562 36.695312 185.84375 36.375 C 186.664062 36.085938 187.40625 35.660156 188.070312 35.101562 C 188.863281 34.335938 189.523438 33.46875 190.054688 32.503906 Z M 190.054688 27.601562 C 189.816406 26.511719 189.363281 25.519531 188.695312 24.625 C 188.050781 23.839844 187.265625 23.242188 186.339844 22.828125 C 185.378906 22.378906 184.332031 22.144531 183.269531 22.144531 C 182.421875 22.128906 181.605469 22.265625 180.8125 22.5625 C 180.019531 22.859375 179.3125 23.289062 178.683594 23.859375 C 177.75 24.699219 177.046875 25.941406 176.566406 27.585938 Z M 196.613281 13.390625 L 198.945312 13.390625 L 198.945312 38.496094 L 196.613281 38.496094 Z M 196.613281 13.390625 " />
</svg>