<svg id="Layer_1" data-name="Layer 1" xmlns="http://www.w3.org/2000/svg" viewBox="0 0 358.43 358.43"><defs><style>.cls-1{fill:#fff;}</style></defs><path class="cls-1" d="M178.71,284.48l.45.32.06.14,0-.11,0,0,0,0,0,.11.05-.14.45-.32-.5.46,109.21-79.53,7.87-5.73H272.4v-126l0-.17,0,.12v0l0-.09,0,0v0l-93.2,85.16L86,73.49h0v4.79l-1.41-4.8L86,80V199.67H62.13L70,205.4l109.24,79.54Zm-35-84.81.08.05-.06-.05h1.34l-30.22-27V141l64.35,58.75-.09-.11.07.06.17-.16-.15.21L243.53,141v31.38l-.09.32-8.8,7.87-21.42,19.15.13-.08,0,0h.09l-.18.05h26.64l-60.64,44.11-60.65-44.11h25.24l-.18-.05Z"/></svg>