<svg version="1.0" xmlns="http://www.w3.org/2000/svg" viewBox="0 0 360.000000 101.000000" preserveAspectRatio="xMidYMid meet">
    <g transform="translate(0.000000,101.000000) scale(0.100000,-0.100000)" fill="#FFFFFF" stroke="none">
        <path d="M425 999 c-92 -15 -188 -52 -259 -100 -79 -53 -120 -99 -141 -160
    -12 -34 -13 -45 -1 -73 16 -39 59 -75 98 -83 31 -6 38 -23 10 -23 -42 0 -66
    -65 -42 -110 5 -10 25 -24 44 -30 32 -10 36 -16 41 -58 10 -73 33 -146 54
    -173 28 -35 106 -75 176 -90 53 -11 67 -10 115 6 93 30 160 119 160 211 0 68
    12 102 36 108 15 4 31 20 41 41 15 31 15 36 -1 59 -9 14 -27 28 -41 32 -31 8
    -32 22 -2 26 40 6 33 41 -16 84 l-45 39 44 48 c56 63 70 109 46 157 -40 81
    -160 115 -317 89z m208 -33 c81 -29 107 -76 79 -139 -22 -48 -62 -90 -62 -65
    0 8 -9 23 -21 34 -32 29 -179 26 -279 -5 -101 -31 -198 -78 -204 -99 -3 -10
    -2 -32 3 -49 5 -17 7 -34 4 -36 -10 -11 -64 16 -83 40 -97 124 182 332 445
    332 44 0 97 -6 118 -13z m-6 -228 c24 -11 5 -13 -133 -18 -117 -4 -166 -9
    -178 -19 -13 -11 -20 -11 -28 -3 -17 17 -1 28 52 40 66 14 253 14 287 0z
    m-357 -40 c-1 -16 -76 -52 -90 -43 -18 11 -6 28 31 41 45 16 59 17 59 2z m245
    -7 c16 -28 -142 -48 -167 -23 -14 14 -15 13 71 18 35 1 66 5 69 8 8 9 20 7 27
    -3z m136 -11 l24 -20 -34 5 c-44 7 -56 15 -40 26 20 12 24 11 50 -11z m-321
    -26 c28 -14 53 -16 167 -10 125 7 137 6 179 -15 54 -26 53 -36 -2 -13 -42 18
    -101 20 -215 9 -60 -6 -87 -4 -128 10 -28 9 -49 21 -45 26 7 12 5 12 44 -7z
    m15 -40 c43 -13 64 -13 150 -3 89 11 104 10 133 -5 31 -16 32 -18 32 -85 l0
    -69 -45 -22 c-27 -13 -73 -24 -117 -27 -83 -6 -205 10 -224 29 -6 7 -15 55
    -19 106 -6 92 -6 92 17 92 13 0 46 -7 73 -16z m-120 -97 c7 -64 15 -102 26
    -112 38 -38 282 -45 363 -11 l39 16 -6 -75 c-7 -93 -36 -150 -92 -182 -95 -54
    -268 -10 -317 81 -18 32 -37 180 -26 193 12 15 2 120 -13 128 -14 9 -11 67 4
    63 7 -3 16 -40 22 -101z m-52 16 c3 -5 7 -26 8 -48 3 -32 0 -40 -14 -43 -41
    -8 -74 57 -45 86 13 13 44 16 51 5z m555 -31 c4 -23 -13 -52 -29 -52 -5 0 -9
    18 -9 41 0 33 3 40 18 37 9 -2 18 -14 20 -26z"></path>
        <path d="M535 590 c-4 -6 6 -10 23 -10 16 0 41 -9 56 -21 29 -23 34 -15 10 19
    -16 23 -77 32 -89 12z"></path>
        <path d="M348 574 c-15 -8 -35 -28 -43 -44 -16 -32 -6 -41 16 -14 19 23 84 54
    113 54 14 0 28 5 31 10 10 16 -86 11 -117 -6z"></path>
        <path d="M604 495 c-7 -18 -40 -20 -47 -2 -4 7 -6 6 -6 -4 -1 -9 5 -22 13 -28
    20 -17 56 3 56 29 0 24 -8 26 -16 5z"></path>
        <path d="M420 485 c0 -17 -23 -20 -51 -5 -23 13 -26 -2 -3 -24 18 -19 45 -21
    62 -4 15 15 16 48 2 48 -5 0 -10 -7 -10 -15z"></path>
        <path d="M270 335 c0 -15 41 -83 62 -102 59 -55 161 -56 235 -3 22 17 68 88
    61 95 -2 3 -19 -1 -36 -7 -24 -9 -37 -10 -50 -1 -15 8 -23 7 -43 -8 -28 -22
    -46 -24 -51 -7 -4 10 -10 10 -31 1 -28 -13 -73 -5 -113 22 -25 16 -34 19 -34
    10z m122 -79 c9 -3 21 -14 27 -24 10 -19 9 -19 -24 -9 -19 5 -47 23 -62 39
    l-28 30 35 -15 c19 -9 43 -18 52 -21z"></path>
        <path d="M1084 513 c46 -111 56 -128 77 -131 23 -3 29 6 75 120 27 67 51 126
    53 131 2 5 -9 7 -24 5 -24 -3 -31 -13 -65 -103 -38 -98 -39 -99 -50 -70 -58
    157 -65 170 -92 173 l-27 3 53 -128z"></path>
        <path d="M1490 623 c-47 -24 -72 -75 -67 -133 4 -35 13 -51 41 -77 31 -28 43
    -33 87 -33 44 0 55 4 84 33 41 41 53 93 34 144 -27 70 -111 101 -179 66z m99
    -38 c33 -17 41 -33 41 -83 0 -48 -32 -82 -79 -82 -50 0 -81 32 -81 85 0 43 12
    65 45 83 27 15 41 15 74 -3z"></path>
        <path d="M1800 635 c0 -3 20 -36 45 -73 40 -60 45 -73 45 -124 0 -55 1 -58 25
    -58 24 0 25 3 25 56 0 50 5 63 43 118 63 90 62 86 30 86 -24 0 -34 -9 -58 -50
    -17 -27 -33 -50 -37 -50 -3 0 -20 23 -37 50 -24 39 -37 50 -56 50 -14 0 -25
    -2 -25 -5z"></path>
        <path d="M2236 587 c-13 -29 -38 -83 -55 -121 -37 -81 -37 -86 -11 -86 12 0
    25 10 32 25 10 23 16 25 80 25 63 0 69 -2 80 -25 7 -17 19 -25 35 -25 14 0 23
    4 21 9 -1 4 -27 63 -57 130 -47 106 -57 121 -78 121 -19 0 -29 -10 -47 -53z
    m93 -109 c1 -5 -19 -8 -44 -8 -52 0 -54 5 -24 70 l21 45 24 -50 c12 -27 23
    -53 23 -57z"></path>
        <path d="M2611 627 c-85 -44 -92 -190 -10 -232 36 -19 102 -19 139 0 28 15 30
    19 30 75 l0 60 -50 0 c-43 0 -50 -3 -50 -20 0 -16 7 -20 30 -20 25 0 30 -4 30
    -23 0 -13 -5 -28 -12 -35 -19 -19 -73 -14 -102 9 -21 17 -26 29 -26 65 0 76
    67 118 132 83 16 -9 23 -8 29 2 24 38 -84 65 -140 36z"></path>
        <path d="M2920 510 l0 -130 95 0 c95 0 95 0 95 25 0 24 -2 25 -70 25 l-70 0 0
    30 0 30 65 0 c58 0 65 2 65 20 0 18 -7 20 -65 20 l-65 0 0 30 0 30 70 0 c68 0
    70 1 70 25 0 25 0 25 -95 25 l-95 0 0 -130z"></path>
        <path d="M3260 510 l0 -130 25 0 c23 0 25 4 25 45 0 40 2 45 23 45 14 0 34
    -15 57 -45 27 -34 42 -44 64 -45 l28 0 -38 47 c-21 26 -33 48 -28 50 28 9 45
    31 50 65 6 32 2 41 -24 68 -29 28 -35 30 -106 30 l-76 0 0 -130z m141 80 c24
    -13 26 -65 3 -74 -9 -3 -33 -6 -55 -6 l-39 0 0 45 c0 45 0 45 36 45 19 0 44
    -5 55 -10z"></path>
    </g>
</svg>